<svg width="338" height="165" viewBox="0 0 338 165" fill="none" xmlns="http://www.w3.org/2000/svg">
<g clip-path="url(#clip0_7761_3)">
<path d="M81.6222 114.901L117.237 32.8122H117.587L120.507 114.901H145.612L183.796 33.5128L189.401 114.901H214.74L250.471 32.8122H250.822L253.741 114.901H278.846L332.677 -0.00012207H307.455L272.424 83.8406H272.074L269.155 -0.00012207H244.983L208.668 84.1909H208.317L206.683 -0.00012207H199.443H181.46H174.221L139.19 83.8406H138.839L135.92 -0.00012207H111.866L75.4334 84.1909H75.0831L73.5651 -0.00012207H48.2261L56.1664 114.901H81.6222Z" fill="black"/>
<path d="M24.5217 139.54V0H0V164.062H337.465V139.54H24.5217Z" fill="black"/>
</g>
<defs>
<clipPath id="clip0_7761_3">
<rect width="337.465" height="164.062" fill="white"/>
</clipPath>
</defs>
</svg>
